<?xml version="1.0" encoding="UTF-8"?>
<svg version="1.1" xmlns="http://www.w3.org/2000/svg" width="500" height="499">
<path d="M0 0 C9.9 0 19.8 0 30 0 C33.37487197 8.99965859 33.37487197 8.99965859 34.32763672 12.1730957 C34.54617813 12.8961087 34.76471954 13.6191217 34.98988342 14.36404419 C35.21751877 15.12691742 35.44515411 15.88979065 35.6796875 16.67578125 C35.92903549 17.50326874 36.17838348 18.33075623 36.43528748 19.18331909 C37.25100563 21.89230689 38.06299476 24.60239721 38.875 27.3125 C39.44397232 29.20426785 40.01323144 31.09594947 40.58276367 32.98754883 C41.77518556 36.9487271 42.96634988 40.9102805 44.15673828 44.87207031 C46.56451763 52.88155336 48.98614339 60.88684218 51.40795898 68.89208984 C53.93980514 77.26104062 56.46970982 85.63057865 59 94 C73.85 94.33 88.7 94.66 104 95 C103.17255963 98.30976149 102.58753455 99.95985634 100.85546875 102.71484375 C100.42556641 103.40126953 99.99566406 104.08769531 99.55273438 104.79492188 C99.10220703 105.50197266 98.65167969 106.20902344 98.1875 106.9375 C97.74857422 107.64068359 97.30964844 108.34386719 96.85742188 109.06835938 C95.99157917 110.4410996 95.10855299 111.80317321 94.20751953 113.15307617 C93.1863225 114.71501624 92.2696555 116.34453783 91.37890625 117.984375 C87.37922319 121.37326902 82.79212952 120.52045585 77.75 120.3125 C76.71875 120.28994141 75.6875 120.26738281 74.625 120.24414062 C72.08185935 120.18527163 69.54166887 120.10310065 67 120 C67.24645264 120.78947021 67.49290527 121.57894043 67.74682617 122.39233398 C76.25678233 149.67384337 76.25678233 149.67384337 79.24560547 160.06542969 C80.31102383 163.74461241 81.44231514 167.39432148 82.6328125 171.03515625 C82.91165283 171.89286621 83.19049316 172.75057617 83.4777832 173.63427734 C84.01806649 175.28688998 84.56561637 176.93715204 85.12182617 178.58447266 C85.36650635 179.33390137 85.61118652 180.08333008 85.86328125 180.85546875 C86.19259644 181.84003052 86.19259644 181.84003052 86.52856445 182.84448242 C87 185 87 185 87 191 C77.1 191 67.2 191 57 191 C55.23758644 185.34892285 53.47695693 179.69734477 51.72045898 174.04443359 C51.12508111 172.13006719 50.52875989 170.21599386 49.93139648 168.30224609 C46.6864185 157.90412489 43.48520888 147.50858119 40.69477844 136.97756958 C39.74918014 133.46042346 38.67977136 130.0762866 37.35864258 126.68017578 C36 123 36 123 36 120 C7.95 120 -20.1 120 -49 120 C-46.74921956 108.74609781 -46.74921956 108.74609781 -45.37890625 104.30859375 C-45.08306641 103.34373047 -44.78722656 102.37886719 -44.48242188 101.38476562 C-44.17884766 100.41216797 -43.87527344 99.43957031 -43.5625 98.4375 C-43.26279297 97.46103516 -42.96308594 96.48457031 -42.65429688 95.47851562 C-41.34291233 91.22576097 -39.9992487 86.98858858 -38.58032227 82.77050781 C-36.95527033 77.90992306 -35.44824143 73.01750573 -33.9609375 68.11328125 C-33.67841125 67.18493973 -33.39588501 66.25659821 -33.10479736 65.30012512 C-32.19360731 62.30463072 -31.28423122 59.30858949 -30.375 56.3125 C-29.74792542 54.24917364 -29.12080929 52.18585992 -28.49365234 50.12255859 C-23.62408078 34.09317817 -18.79076018 18.05311312 -14 2 C-13.01 2 -12.02 2 -11 2 C-7.94557173 10.8123505 -5.17317266 19.63841685 -2.78833008 28.65576172 C-1.83398922 32.21406095 -0.78338483 35.57606483 0.6484375 38.97265625 C3.72810522 47.0810226 1.64048973 54.55403943 -0.8125 62.5625 C-1.07353516 63.45646484 -1.33457031 64.35042969 -1.60351562 65.27148438 C-2.75667214 69.16374352 -3.96511695 72.99825989 -5.44921875 76.77734375 C-7.63823507 82.73786425 -9.25558363 88.89454272 -11 95 C1.87 95 14.74 95 28 95 C26.35 90.05 24.7 85.1 23 80 C21.72318558 75.58824284 20.47088975 71.1767745 19.25 66.75 C16.54397634 57.09373389 13.60082882 47.55755934 10.375 38.0625 C7.56134097 29.77344964 4.85812378 21.47567959 2.4375 13.0625 C2.18597168 12.19826416 1.93444336 11.33402832 1.67529297 10.44360352 C1.33908936 9.25142212 1.33908936 9.25142212 0.99609375 8.03515625 C0.80200928 7.3481665 0.6079248 6.66117676 0.40795898 5.95336914 C0 4 0 4 0 0 Z " fill="#E69943" transform="translate(288,118)"/>
<path d="M0 0 C19.14 0 38.28 0 58 0 C60.31 8.25 62.62 16.5 65 25 C66.86213384 30.59033112 66.86213384 30.59033112 68.76171875 36.16796875 C70.64347828 41.81627512 72.09805693 47.59077704 73.63354492 53.34033203 C75.41287492 59.95955205 77.3449211 66.51618138 79.375 73.0625 C82.0512549 81.70555992 84.50659123 90.3928052 86.875 99.125 C89.93178872 110.37281715 93.270179 121.50784622 96.76489258 132.62670898 C99.1179631 140.12322139 101.39994393 147.63370876 103.5625 155.1875 C103.81402832 156.06083984 104.06555664 156.93417969 104.32470703 157.83398438 C106 163.74508279 106 163.74508279 106 166 C109.96 165.67 113.92 165.34 118 165 C120.47662589 158.42413127 122.65967282 151.92888819 124.38671875 145.1171875 C125 143 125 143 126 142 C128.21855264 141.91216458 130.43988496 141.89305391 132.66015625 141.90234375 C133.65685585 141.90446617 133.65685585 141.90446617 134.6736908 141.90663147 C136.80333899 141.91224482 138.93288339 141.92479946 141.0625 141.9375 C142.50325369 141.94251329 143.94400903 141.94707649 145.38476562 141.95117188 C148.92321102 141.96221855 152.46159539 141.97949208 156 142 C154.48452394 149.4055222 152.38539925 156.54025073 150.125 163.75 C149.61646484 165.38582031 149.61646484 165.38582031 149.09765625 167.0546875 C148.41518802 169.25000355 147.73063208 171.44467171 147.04394531 173.63867188 C146.31493299 175.98596881 145.59635519 178.33652069 144.88574219 180.68945312 C144.35062012 182.4596582 144.35062012 182.4596582 143.8046875 184.265625 C143.48226074 185.34102539 143.15983398 186.41642578 142.82763672 187.52441406 C142 190 142 190 141 191 C139.22008076 191.09370624 137.43643261 191.11744271 135.65405273 191.11352539 C134.5129454 191.11344986 133.37183807 191.11337433 132.19615173 191.11329651 C130.9545076 191.10813522 129.71286346 191.10297394 128.43359375 191.09765625 C126.53795433 191.09553383 126.53795433 191.09553383 124.60401917 191.09336853 C121.23875111 191.08870582 117.8735501 191.0797148 114.50830078 191.06866455 C111.0765033 191.05844846 107.64469891 191.05387049 104.21289062 191.04882812 C97.47524176 191.0377738 90.73762475 191.0210171 84 191 C80.05872345 179.41108086 76.35680708 167.77324178 72.87744141 156.03759766 C71.57283426 151.63782909 70.25854015 147.24095169 68.9453125 142.84375 C68.55898651 141.54896729 68.55898651 141.54896729 68.16485596 140.22802734 C66.14747038 133.47361306 64.08787605 126.73296981 62 120 C59.67927459 112.51454097 57.40022627 105.01774711 55.16015625 97.5078125 C54.90889984 96.66566193 54.65764343 95.82351135 54.39877319 94.95584106 C53.88116447 93.22078453 53.36355583 91.48572797 52.84594727 89.75067139 C48.69345301 75.83386317 44.47396494 61.95156039 39.94165039 48.15283203 C39.61028076 47.14075684 39.27891113 46.12868164 38.9375 45.0859375 C38.61168945 44.10439697 38.28587891 43.12285645 37.95019531 42.11157227 C37.26766615 39.87651723 36.67275331 37.61400858 36.13574219 35.33959961 C34.50647593 28.60409289 33.36485805 23.9542742 27.41381836 20.06005859 C26.6997583 19.64836426 25.98569824 19.23666992 25.25 18.8125 C24.51080322 18.33893066 23.77160645 17.86536133 23.01000977 17.37744141 C21.47025113 16.39119931 19.920648 15.42016622 18.36181641 14.46435547 C14.47287479 12.05316342 10.71152321 9.46076216 6.9375 6.875 C6.24108398 6.41327393 5.54466797 5.95154785 4.82714844 5.47583008 C3.18249616 4.36833909 1.58545566 3.19069214 0 2 C0 1.34 0 0.68 0 0 Z " fill="#3CA4C5" transform="translate(106,118)"/>
<path d="M0 0 C2 3 2 3 5 13 C19.85 13.33 34.7 13.66 50 14 C49.17255963 17.30976149 48.58753455 18.95985634 46.85546875 21.71484375 C46.42556641 22.40126953 45.99566406 23.08769531 45.55273438 23.79492188 C45.10220703 24.50197266 44.65167969 25.20902344 44.1875 25.9375 C43.74857422 26.64068359 43.30964844 27.34386719 42.85742188 28.06835938 C41.99157917 29.4410996 41.10855299 30.80317321 40.20751953 32.15307617 C39.1863225 33.71501624 38.2696555 35.34453783 37.37890625 36.984375 C33.37922319 40.37326902 28.79212952 39.52045585 23.75 39.3125 C22.71875 39.28994141 21.6875 39.26738281 20.625 39.24414062 C18.08185935 39.18527163 15.54166887 39.10310065 13 39 C13.25692627 39.81041748 13.51385254 40.62083496 13.77856445 41.45581055 C14.74985871 44.52796858 15.71656902 47.60152472 16.68041992 50.67602539 C17.09466782 51.99429051 17.51062224 53.31202087 17.9284668 54.62915039 C20.69017075 63.33965108 23.09394954 72.05870118 25 81 C23 80 23 80 22.0625 78 C21.1108154 75.65391779 21.1108154 75.65391779 18 75 C18.33 71.04 18.66 67.08 19 63 C18.34 63 17.68 63 17 63 C17 62.34 17 61.68 17 61 C16.01 61 15.02 61 14 61 C13.96261719 60.33613281 13.92523438 59.67226563 13.88671875 58.98828125 C13.49188612 53.68513712 12.76408882 50.56675545 10 46 C9.60139395 42.53415418 9.40845981 39.18308038 11 36 C11.66 36 12.32 36 13 36 C13.33 35.34 13.66 34.68 14 34 C14.99 34.33 15.98 34.66 17 35 C21.7738873 35.18361105 26.3080842 34.91998349 31 34 C33.6855594 31.3144406 34.06049974 28.62378672 35 25 C36.98 25 38.96 25 41 25 C42.81301758 20.56906802 42.81301758 20.56906802 42 16 C40.16888672 16.10828125 40.16888672 16.10828125 38.30078125 16.21875 C29.64021214 16.7123804 21.04784766 17.11435104 12.37109375 16.9375 C9.98103596 16.83302778 9.98103596 16.83302778 8 18 C5.5 17.4375 5.5 17.4375 3 16 C0.5246938 11.04938761 0.40910544 5.44756194 0 0 Z " fill="#B4694A" transform="translate(342,199)"/>
<path d="M0 0 C19.14 0 38.28 0 58 0 C60.25 7.875 60.25 7.875 59 11 C58.34 10.67 57.68 10.34 57 10 C56.5859375 7.93359375 56.5859375 7.93359375 56.375 5.4375 C56.30023438 4.61121094 56.22546875 3.78492187 56.1484375 2.93359375 C56.09945312 2.29550781 56.05046875 1.65742187 56 1 C51.71313604 1.1190264 47.42646544 1.24331925 43.13989258 1.37231445 C41.6842047 1.41539933 40.22847483 1.45709075 38.77270508 1.49731445 C36.66995639 1.55566411 34.56741394 1.61916516 32.46484375 1.68359375 C31.202771 1.72025146 29.94069824 1.75690918 28.64038086 1.79467773 C25.04415658 1.99750951 21.5617808 2.47906738 18 3 C16.68 3 15.36 3 14 3 C14 4.65 14 6.3 14 8 C14.66 8.33 15.32 8.66 16 9 C16 9.66 16 10.32 16 11 C17.0725 11.061875 18.145 11.12375 19.25 11.1875 C23.75477536 12.16353466 24.32803888 13.43738517 27 17 C30.33462852 18.11154284 33.50313218 18.09991051 37 18 C37.34274406 19.66475686 37.67364302 21.33195323 38 23 C38.20625 24.051875 38.4125 25.10375 38.625 26.1875 C39 29 39 29 38 31 C38.515625 31.4125 39.03125 31.825 39.5625 32.25 C41 34 41 34 40.8125 36 C40 38 40 38 38 41 C37.83628906 39.98421875 37.67257813 38.9684375 37.50390625 37.921875 C35.65196552 28.99750216 32.87184499 23.78354231 25.1875 18.6875 C22.92673912 17.23291725 20.64905052 15.81829536 18.34570312 14.43212891 C14.44812341 12.0525283 10.70131487 9.45881266 6.9375 6.875 C6.24100342 6.41311279 5.54450684 5.95122559 4.8269043 5.4753418 C3.18225746 4.36813125 1.58532681 3.19059537 0 2 C0 1.34 0 0.68 0 0 Z " fill="#375CA6" transform="translate(106,118)"/>
<path d="M0 0 C0.99 0 1.98 0 3 0 C2.59913484 7.29085739 1.08378681 13.58323671 -1.375 20.4375 C-2.01273269 22.27393694 -2.64817387 24.11117135 -3.28125 25.94921875 C-3.58160156 26.81853027 -3.88195312 27.6878418 -4.19140625 28.58349609 C-5.4755224 32.42111132 -6.51696022 36.30877659 -7.4921875 40.234375 C-8 42 -8 42 -9 43 C-10.77991924 43.09370624 -12.56356739 43.11744271 -14.34594727 43.11352539 C-15.4870546 43.11344986 -16.62816193 43.11337433 -17.80384827 43.11329651 C-19.0454924 43.10813522 -20.28713654 43.10297394 -21.56640625 43.09765625 C-23.46204567 43.09553383 -23.46204567 43.09553383 -25.39598083 43.09336853 C-28.76124889 43.08870582 -32.1264499 43.0797148 -35.49169922 43.06866455 C-38.9234967 43.05844846 -42.35530109 43.05387049 -45.78710938 43.04882812 C-52.52475824 43.0377738 -59.26237525 43.0210171 -66 43 C-66 42.01 -66 41.02 -66 40 C-64.78940918 40.00523682 -63.57881836 40.01047363 -62.33154297 40.01586914 C-57.82520288 40.03401681 -53.318866 40.04546767 -48.8125 40.05493164 C-46.86490332 40.05994955 -44.91731039 40.06676534 -42.96972656 40.07543945 C-40.16470411 40.08761652 -37.35973163 40.09325383 -34.5546875 40.09765625 C-33.68883026 40.10281754 -32.82297302 40.10797882 -31.93087769 40.11329651 C-27.5027179 40.11370419 -23.35974798 39.89613596 -19 39 C-19 39.66 -19 40.32 -19 41 C-14.056727 40.05076064 -14.056727 40.05076064 -10.25 37 C-8.48196752 32.75672204 -7.23125548 28.42417224 -6 24 C-5.62875 22.80375 -5.2575 21.6075 -4.875 20.375 C-4.19204452 17.74074315 -3.81401079 15.49035017 -3.5625 12.8125 C-2.99165441 8.94343545 -2.31750197 7.92206771 0 5 C0.25124826 2.33238236 0.25124826 2.33238236 0 0 Z " fill="#44999E" transform="translate(256,266)"/>
<path d="M0 0 C1.65 0 3.3 0 5 0 C5.66 0.66 6.32 1.32 7 2 C7.33 1.34 7.66 0.68 8 0 C9.98 0 11.96 0 14 0 C14 4.62 14 9.24 14 14 C12.02 14 10.04 14 8 14 C7.34 13.34 6.68 12.68 6 12 C5.67 12.66 5.34 13.32 5 14 C3.35 14 1.7 14 0 14 C0 9.38 0 4.76 0 0 Z " fill="#C6CBCD" transform="translate(208,343)"/>
<path d="M0 0 C2 1 2 1 3 3 C3.51981506 6.56444611 3.63102777 9.73794446 2 13 C-1.26621578 14.63310789 -4.48256426 14.62155491 -8 14 C-10.5625 12.4375 -10.5625 12.4375 -12 10 C-11.93957505 6.55577787 -11.60093625 4.09582493 -9.9375 1.0625 C-6.74097829 -0.69043126 -3.55067826 -0.51780725 0 0 Z M-6 5 C-5.67 6.32 -5.34 7.64 -5 9 C-5 8.01 -5 7.02 -5 6 C-4.01 5.67 -3.02 5.34 -2 5 C-3.32 5 -4.64 5 -6 5 Z " fill="#BFC2C5" transform="translate(243,343)"/>
<path d="M0 0 C1.588125 -0.061875 3.17625 -0.12375 4.8125 -0.1875 C6.15248047 -0.23970703 6.15248047 -0.23970703 7.51953125 -0.29296875 C10 0 10 0 11.7734375 1.36328125 C13.44922662 3.59944572 13.8012016 5.21682246 14 8 C12.6 12.4 12.6 12.4 11 14 C7.3308423 14.14310287 3.67284559 14.04221662 0 14 C0 9.38 0 4.76 0 0 Z M5 5 C5 6.65 5 8.3 5 10 C5.99 9.67 6.98 9.34 8 9 C8 7.68 8 6.36 8 5 C7.01 5 6.02 5 5 5 Z " fill="#B5BBBD" transform="translate(325,343)"/>
<path d="M0 0 C1.60875 -0.04125 3.2175 -0.0825 4.875 -0.125 C5.77992188 -0.14820313 6.68484375 -0.17140625 7.6171875 -0.1953125 C10 0 10 0 12 2 C11.77619635 3.98226092 11.54595753 5.96659305 11.19140625 7.9296875 C10.85269334 10.34808881 10.85269334 10.34808881 12 14 C8.04 14 4.08 14 0 14 C0 9.38 0 4.76 0 0 Z M5 4 C6 6 6 6 6 6 Z " fill="#D8DCDE" transform="translate(303,343)"/>
<path d="M0 0 C1.65 0 3.3 0 5 0 C5.33 2.97 5.66 5.94 6 9 C6.66 6.03 7.32 3.06 8 0 C9.65 0 11.3 0 13 0 C13.05410687 1.77049689 13.09284119 3.54146849 13.125 5.3125 C13.14820313 6.29863281 13.17140625 7.28476562 13.1953125 8.30078125 C13 11 13 11 11 14 C8.90625 14.36328125 8.90625 14.36328125 6.5 14.3125 C5.7059375 14.30863281 4.911875 14.30476563 4.09375 14.30078125 C2 14 2 14 0 12 C-0.1953125 9.1796875 -0.1953125 9.1796875 -0.125 5.875 C-0.10695312 4.77929688 -0.08890625 3.68359375 -0.0703125 2.5546875 C-0.04710937 1.71164062 -0.02390625 0.86859375 0 0 Z " fill="#E6ECEF" transform="translate(256,343)"/>
<path d="M0 0 C2 3 2 3 5 13 C19.85 13.33 34.7 13.66 50 14 C49.67 15.32 49.34 16.64 49 18 C48.34 18 47.68 18 47 18 C47 17.34 47 16.68 47 16 C46.34 16 45.68 16 45 16 C44.67 17.32 44.34 18.64 44 20 C43.34 18.68 42.68 17.36 42 16 C40.16888672 16.10828125 40.16888672 16.10828125 38.30078125 16.21875 C29.64021214 16.7123804 21.04784766 17.11435104 12.37109375 16.9375 C9.98103596 16.83302778 9.98103596 16.83302778 8 18 C5.5 17.4375 5.5 17.4375 3 16 C0.5246938 11.04938761 0.40910544 5.44756194 0 0 Z " fill="#C17A56" transform="translate(342,199)"/>
<path d="M0 0 C1.98 0 3.96 0 6 0 C6.67260351 1.76858691 7.33788395 3.53996016 8 5.3125 C8.37125 6.29863281 8.7425 7.28476562 9.125 8.30078125 C10 11 10 11 10 14 C5.05 14 0.1 14 -5 14 C-2.05357143 3.82142857 -2.05357143 3.82142857 0 0 Z " fill="#C0C5CB" transform="translate(283,343)"/>
<path d="M0 0 C1.98 0 3.96 0 6 0 C6.67260351 1.76858691 7.33788395 3.53996016 8 5.3125 C8.37125 6.29863281 8.7425 7.28476562 9.125 8.30078125 C10 11 10 11 10 14 C5.38 14 0.76 14 -4 14 C-3.46148032 8.72250715 -2.22656164 4.74354436 0 0 Z " fill="#C5CBCD" transform="translate(188,343)"/>
<path d="M0 0 C1.98 0 3.96 0 6 0 C6.66 1.65 7.32 3.3 8 5 C8.66 3.35 9.32 1.7 10 0 C11.65 0 13.3 0 15 0 C14.46148032 5.27749285 13.22656164 9.25645564 11 14 C9.02 14 7.04 14 5 14 C0.59225513 4.58997722 0.59225513 4.58997722 0 0 Z " fill="#DBE0E2" transform="translate(159,343)"/>
<path d="M0 0 C0.99 0.33 1.98 0.66 3 1 C2.67 3.64 2.34 6.28 2 9 C15.86 9 29.72 9 44 9 C44.33 8.34 44.66 7.68 45 7 C44.67 8.32 44.34 9.64 44 11 C38.07365273 11.1675655 32.14717308 11.32813049 26.22045898 11.48217773 C24.20380535 11.53558505 22.18720165 11.59091343 20.1706543 11.64819336 C17.27403531 11.73013953 14.37730769 11.80520145 11.48046875 11.87890625 C10.12564644 11.91945885 10.12564644 11.91945885 8.74345398 11.96083069 C7.90280899 11.98092697 7.062164 12.00102325 6.19604492 12.02172852 C5.45658127 12.04171402 4.71711761 12.06169952 3.95524597 12.08229065 C2 12 2 12 -1 11 C-1.125 3.375 -1.125 3.375 0 0 Z " fill="#D9AB61" transform="translate(273,204)"/>
<path d="M0 0 C0.96672134 0.00141495 1.93344269 0.0028299 2.92945862 0.00428772 C5.99597357 0.00985404 9.06241363 0.02240026 12.12890625 0.03515625 C14.21679582 0.0401756 16.30468653 0.04473775 18.39257812 0.04882812 C23.49221605 0.05981243 28.59179848 0.0770537 33.69140625 0.09765625 C36.03069196 7.74944196 36.03069196 7.74944196 34.69140625 11.09765625 C34.03140625 10.76765625 33.37140625 10.43765625 32.69140625 10.09765625 C32.27734375 8.03125 32.27734375 8.03125 32.06640625 5.53515625 C31.99164063 4.70886719 31.916875 3.88257812 31.83984375 3.03125 C31.79085937 2.39316406 31.741875 1.75507812 31.69140625 1.09765625 C27.40454229 1.21668265 23.11787169 1.3409755 18.83129883 1.4699707 C17.37561095 1.51305558 15.91988108 1.554747 14.46411133 1.5949707 C12.36136264 1.65332036 10.25882019 1.71682141 8.15625 1.78125 C6.89417725 1.81790771 5.63210449 1.85456543 4.33178711 1.89233398 C0.73556283 2.09516576 -2.74681295 2.57672363 -6.30859375 3.09765625 C-7.62859375 3.09765625 -8.94859375 3.09765625 -10.30859375 3.09765625 C-10.63859375 4.41765625 -10.96859375 5.73765625 -11.30859375 7.09765625 C-16.05859375 5.22265625 -16.05859375 5.22265625 -18.30859375 4.09765625 C-17.97859375 3.10765625 -17.64859375 2.11765625 -17.30859375 1.09765625 C-11.50205148 0.09341285 -5.88493582 -0.03278988 0 0 Z " fill="#4277C5" transform="translate(130.30859375,117.90234375)"/>
<path d="M0 0 C0.99 0 1.98 0 3 0 C2.59912817 7.29097868 1.08344962 13.58304661 -1.375 20.4375 C-2.01134031 22.27266724 -2.64547795 24.10859983 -3.27734375 25.9453125 C-3.57753418 26.81446289 -3.87772461 27.68361328 -4.18701172 28.57910156 C-5.67010623 32.99542745 -6.88793214 37.47759069 -8 42 C-8.33 42 -8.66 42 -9 42 C-9.36711832 35.3918703 -8.09056348 30.24094686 -6 24 C-4.82905795 20.2269645 -3.93064149 16.73212407 -3.5625 12.8125 C-2.99165441 8.94343545 -2.31750197 7.92206771 0 5 C0.25124826 2.33238236 0.25124826 2.33238236 0 0 Z " fill="#3FAE95" transform="translate(256,266)"/>
<path d="M0 0 C2.94629611 2.45937322 3.73581722 4.69918822 4.6875 8.375 C5.06455078 9.77878906 5.06455078 9.77878906 5.44921875 11.2109375 C5.97861526 13.89171134 6.10398074 16.27669489 6 19 C5.34 19 4.68 19 4 19 C3.67 18.34 3.34 17.68 3 17 C1.824375 17.0309375 1.824375 17.0309375 0.625 17.0625 C-2 17 -2 17 -4 16 C-3.47606294 10.13190493 -2.23891142 5.45126259 0 0 Z " fill="#E3B64B" transform="translate(275,119)"/>
<path d="M0 0 C2.25328826 4.30129042 3.65468643 8.76004448 5.125 13.375 C5.54072266 14.63183594 5.54072266 14.63183594 5.96484375 15.9140625 C6.35736328 17.14382813 6.35736328 17.14382813 6.7578125 18.3984375 C6.9964502 19.13755371 7.23508789 19.87666992 7.48095703 20.63818359 C8 23 8 23 8 29 C-0.91 29 -9.82 29 -19 29 C-19 28.67 -19 28.34 -19 28 C-6.625 27.505 -6.625 27.505 6 27 C6 25.68 6 24.36 6 23 C4.68 23.33 3.36 23.66 2 24 C1 22 1 22 1.5625 19.875 C2.05715244 16.62442679 1.36914703 14.32840968 0.48046875 11.203125 C-0.32992099 7.48719155 -0.15758637 3.7820729 0 0 Z " fill="#734535" transform="translate(367,280)"/>
<path d="M0 0 C0.66 0 1.32 0 2 0 C2.29166667 1.3125 2.58333333 2.625 2.875 3.9375 C3.15150391 5.16726563 3.15150391 5.16726563 3.43359375 6.421875 C3.79667877 8.07453786 4.14446462 9.73068057 4.47265625 11.390625 C5.41606516 16.05217489 6.8200653 19.73921854 9 24 C9 25.32 9 26.64 9 28 C16.59 28 24.18 28 32 28 C32 28.33 32 28.66 32 29 C19.625 29.495 19.625 29.495 7 30 C5.63338927 25.75363843 4.28132301 21.50356999 2.9375 17.25 C2.54755859 16.0434375 2.15761719 14.836875 1.75585938 13.59375 C1.39169922 12.43359375 1.02753906 11.2734375 0.65234375 10.078125 C0.14175415 8.47565918 0.14175415 8.47565918 -0.37915039 6.84082031 C-0.99049843 4.04347633 -0.98457424 2.64412572 0 0 Z " fill="#BE7A58" transform="translate(338,279)"/>
<path d="M0 0 C0.66 0 1.32 0 2 0 C1.24742268 5.51890034 1.24742268 5.51890034 -0.125 8.1875 C-1.33520912 10.15640365 -1.33520912 10.15640365 0 13 C0 15.83967231 -0.40267181 18.23735711 -1 21 C-1.66 21 -2.32 21 -3 21 C-3.2475 22.051875 -3.495 23.10375 -3.75 24.1875 C-4.76700786 27.8133541 -6.45373429 30.19910772 -9 33 C-8.52060632 28.28596212 -8.03165952 24.33420699 -6 20 C-5.34 20 -4.68 20 -4 20 C-4.33 19.01 -4.66 18.02 -5 17 C-4.75754106 14.76213183 -4.43611971 12.53224066 -4.0625 10.3125 C-3.86785156 9.13300781 -3.67320312 7.95351562 -3.47265625 6.73828125 C-3.31667969 5.83464844 -3.16070312 4.93101562 -3 4 C-2.01 3.67 -1.02 3.34 0 3 C0 2.01 0 1.02 0 0 Z " fill="#F6CB49" transform="translate(265,156)"/>
<path d="M0 0 C0.55719727 0.32597168 1.11439453 0.65194336 1.68847656 0.98779297 C4.3256978 2.14262179 6.117054 2.23027983 8.984375 2.1953125 C9.91894531 2.18886719 10.85351562 2.18242187 11.81640625 2.17578125 C12.78449219 2.15902344 13.75257813 2.14226562 14.75 2.125 C15.73355469 2.11597656 16.71710938 2.10695312 17.73046875 2.09765625 C20.15389407 2.07412785 22.57682222 2.04125368 25 2 C25 2.33 25 2.66 25 3 C38.86 3.495 38.86 3.495 53 4 C53 4.33 53 4.66 53 5 C34.52 5 16.04 5 -3 5 C-1 1 -1 1 0 0 Z " fill="#F6D56C" transform="translate(243,232)"/>
<path d="M0 0 C2.12400266 4.24800531 3.52156077 8.42059179 4.9375 12.9375 C5.20256348 13.77837158 5.46762695 14.61924316 5.74072266 15.4855957 C7.84191443 22.25990512 9.57724759 29.04848165 11 36 C9 35 9 35 8.0625 33 C7.1108154 30.65391779 7.1108154 30.65391779 4 30 C4.33 26.04 4.66 22.08 5 18 C4.34 18 3.68 18 3 18 C3 17.34 3 16.68 3 16 C2.01 16 1.02 16 0 16 C0 10.72 0 5.44 0 0 Z " fill="#B86243" transform="translate(356,244)"/>
<path d="M0 0 C0.34274406 1.66475686 0.67364302 3.33195323 1 5 C1.20625 6.051875 1.4125 7.10375 1.625 8.1875 C2 11 2 11 1 13 C1.515625 13.4125 2.03125 13.825 2.5625 14.25 C4 16 4 16 3.8125 18 C3 20 3 20 1 23 C0.16142312 20.39741676 -0.67103344 17.79314353 -1.5 15.1875 C-1.73847656 14.44951172 -1.97695312 13.71152344 -2.22265625 12.95117188 C-3.19940136 9.86744804 -4 7.25504191 -4 4 C-4.66 4 -5.32 4 -6 4 C-6.33 3.01 -6.66 2.02 -7 1 C-4.53721199 -0.231394 -2.7204945 -0.07159196 0 0 Z " fill="#3B77C6" transform="translate(143,136)"/>
<path d="M0 0 C0.66 0 1.32 0 2 0 C2 1.65 2 3.3 2 5 C2.66 5 3.32 5 4 5 C4.12375 5.804375 4.2475 6.60875 4.375 7.4375 C4.684375 8.7059375 4.684375 8.7059375 5 10 C5.66 10.33 6.32 10.66 7 11 C6.67 13.31 6.34 15.62 6 18 C6.66 18 7.32 18 8 18 C8.67404284 20.56076097 9.339414 23.12326583 10 25.6875 C10.19078125 26.40873047 10.3815625 27.12996094 10.578125 27.87304688 C11.54865428 31.66850961 12.24955239 35.04615439 12 39 C9.46199385 36.46199385 9.09895127 34.44692988 8.125 30.99609375 C7.77953125 29.77986328 7.4340625 28.56363281 7.078125 27.31054688 C6.90087891 26.67366943 6.72363281 26.03679199 6.54101562 25.38061523 C6.00829116 23.46727857 5.46516249 21.55684855 4.921875 19.64648438 C3.08451775 13.13003635 1.38178579 6.62825369 0 0 Z " fill="#AA7B48" transform="translate(301,161)"/>
<path d="M0 0 C1.485 0.99 1.485 0.99 3 2 C3.1875 4.625 3.1875 4.625 3 7 C3.66 7 4.32 7 5 7 C5.63476562 10.02734375 5.63476562 10.02734375 6.26953125 13.0546875 C6.92308838 15.37046549 6.92308838 15.37046549 10 17 C9.67 17.99 9.34 18.98 9 20 C8.93197033 21.72795352 8.91504355 23.45835365 8.9375 25.1875 C8.95103516 26.53908203 8.95103516 26.53908203 8.96484375 27.91796875 C8.97644531 28.60503906 8.98804688 29.29210937 9 30 C7.12676443 27.19014664 6.40146763 25.34525058 5.52734375 22.1484375 C5.26759766 21.21515625 5.00785156 20.281875 4.74023438 19.3203125 C4.47533203 18.34835937 4.21042969 17.37640625 3.9375 16.375 C3.40788384 14.44450465 2.87548229 12.51477055 2.33984375 10.5859375 C1.98974243 9.30275635 1.98974243 9.30275635 1.63256836 7.99365234 C1.17521341 6.02183298 1.17521341 6.02183298 0 5 C-0.04063832 3.33382885 -0.042721 1.66611905 0 0 Z " fill="#B27848" transform="translate(326,243)"/>
<path d="M0 0 C1.65 0 3.3 0 5 0 C5.33 2.97 5.66 5.94 6 9 C6.33 7.02 6.66 5.04 7 3 C7.33 3 7.66 3 8 3 C8 5.64 8 8.28 8 11 C5.35261084 12.4606285 4.10551666 13 1 13 C0 12 0 12 -0.09765625 9.27734375 C-0.08605469 8.17519531 -0.07445312 7.07304687 -0.0625 5.9375 C-0.05347656 4.83277344 -0.04445312 3.72804688 -0.03515625 2.58984375 C-0.02355469 1.73519531 -0.01195312 0.88054687 0 0 Z " fill="#9CA2A6" transform="translate(256,343)"/>
<path d="M0 0 C0.99 0.33 1.98 0.66 3 1 C6.33626577 7.92916737 7.22719393 13.57101496 7.62109375 21.1640625 C7.74613281 22.09992188 7.87117187 23.03578125 8 24 C8.66 24.33 9.32 24.66 10 25 C9.67 26.65 9.34 28.3 9 30 C6.36491717 25.07382299 4.9840518 19.76503127 3.375 14.4375 C3.05015625 13.38369141 2.7253125 12.32988281 2.390625 11.24414062 C2.08382812 10.23416016 1.77703125 9.22417969 1.4609375 8.18359375 C1.18040527 7.26118896 0.89987305 6.33878418 0.61083984 5.38842773 C0 3 0 3 0 0 Z " fill="#3876A9" transform="translate(150,176)"/>
<path d="M0 0 C0.66 0.33 1.32 0.66 2 1 C1.814375 2.2375 1.62875 3.475 1.4375 4.75 C1.05288777 7.76279577 0.9125406 10.10010827 2 13 C-3.75 13.125 -3.75 13.125 -6 12 C-6 9.36 -6 6.72 -6 4 C-4.7934375 3.566875 -4.7934375 3.566875 -3.5625 3.125 C-0.8673532 2.26737432 -0.8673532 2.26737432 0 0 Z " fill="#C1C6C7" transform="translate(313,344)"/>
<path d="M0 0 C2.36255877 4.48451026 3.75977188 9.17055701 5.25 14 C5.54390625 14.90234375 5.8378125 15.8046875 6.140625 16.734375 C6.40875 17.60578125 6.676875 18.4771875 6.953125 19.375 C7.20223633 20.16648437 7.45134766 20.95796875 7.70800781 21.7734375 C8.06456692 24.49234979 7.42695481 25.70850153 6 28 C5 26 4 24 3 22 C2.01 21.67 1.02 21.34 0 21 C0.33644531 20.43667969 0.67289063 19.87335938 1.01953125 19.29296875 C2.15873682 16.62877086 2.07780677 15.15750717 1.6875 12.3125 C1.58824219 11.52488281 1.48898438 10.73726563 1.38671875 9.92578125 C1.185081 8.00039733 1.185081 8.00039733 0 7 C-0.04092937 4.66702567 -0.04241723 2.33294775 0 0 Z " fill="#41A2AF" transform="translate(201,248)"/>
<path d="M0 0 C0.33 1.32 0.66 2.64 1 4 C1.66 3.67 2.32 3.34 3 3 C5.125 3.9375 5.125 3.9375 7 5 C6.60196439 7.88575819 6.20990931 8.82189513 3.9375 10.75 C3.298125 11.1625 2.65875 11.575 2 12 C0 10.8125 0 10.8125 -2 9 C-2.25 6.3125 -2.25 6.3125 -2 4 C-4.475 3.01 -4.475 3.01 -7 2 C-7 1.34 -7 0.68 -7 0 C-4.3333581 -1.33332095 -2.83319697 -0.67102033 0 0 Z " fill="#E78B3C" transform="translate(327,234)"/>
<path d="M0 0 C8.25 0 16.5 0 25 0 C25 0.33 25 0.66 25 1 C24.07767578 1.09087891 24.07767578 1.09087891 23.13671875 1.18359375 C22.32847656 1.26738281 21.52023437 1.35117188 20.6875 1.4375 C19.88699219 1.51871094 19.08648437 1.59992188 18.26171875 1.68359375 C15.83912821 1.95265693 15.83912821 1.95265693 13 3 C13 2.34 13 1.68 13 1 C11.02 1 9.04 1 7 1 C6.87625 1.78375 6.7525 2.5675 6.625 3.375 C6 6 6 6 4 8 C3.01 8 2.02 8 1 8 C0.67 5.36 0.34 2.72 0 0 Z " fill="#EEAB45" transform="translate(291,119)"/>
<path d="M0 0 C9.9 0 19.8 0 30 0 C30.99 2.64 31.98 5.28 33 8 C32.67 8.66 32.34 9.32 32 10 C31.896875 9.360625 31.79375 8.72125 31.6875 8.0625 C31.460625 7.381875 31.23375 6.70125 31 6 C30.01 5.67 29.02 5.34 28 5 C28 3.68 28 2.36 28 1 C19.75 1 11.5 1 3 1 C3 3.97 3 6.94 3 10 C1 7 1 7 0 0 Z " fill="#C09A5A" transform="translate(288,118)"/>
<path d="M0 0 C1.98 0 3.96 0 6 0 C6.66 1.65 7.32 3.3 8 5 C8.66 4.34 9.32 3.68 10 3 C9.8125 5.75 9.8125 5.75 9 9 C7.35 10.32 5.7 11.64 4 13 C2.68 8.71 1.36 4.42 0 0 Z " fill="#B7BCC0" transform="translate(159,343)"/>
<path d="M0 0 C2.475 0.99 2.475 0.99 5 2 C5 2.99 5 3.98 5 5 C3.68 5.33 2.36 5.66 1 6 C0.67 7.98 0.34 9.96 0 12 C-3.96 12 -7.92 12 -12 12 C-11.67 11.34 -11.34 10.68 -11 10 C-8.66752239 9.66073053 -6.33414529 9.32759934 -4 9 C-1.3144406 6.3144406 -0.93950026 3.62378672 0 0 Z " fill="#D5643F" transform="translate(377,224)"/>
<path d="M0 0 C0.66 0 1.32 0 2 0 C2.65795898 1.72949219 2.65795898 1.72949219 3 4 C2.01196289 6.10644531 2.01196289 6.10644531 0.47265625 8.328125 C-0.07197266 9.12734375 -0.61660156 9.9265625 -1.17773438 10.75 C-2.04881836 11.9875 -2.04881836 11.9875 -2.9375 13.25 C-3.8027832 14.51070312 -3.8027832 14.51070312 -4.68554688 15.796875 C-6.11262434 17.87262404 -7.55092671 19.93957418 -9 22 C-9.93423645 18.98968256 -10.04449911 18.13349732 -9 15 C-6.9375 14.3125 -6.9375 14.3125 -5 14 C-5 13.01 -5 12.02 -5 11 C-5.66 10.67 -6.32 10.34 -7 10 C-6.01 9.67 -5.02 9.34 -4 9 C-3.67 7.35 -3.34 5.7 -3 4 C-2.01 4 -1.02 4 0 4 C0 2.68 0 1.36 0 0 Z " fill="#944B3B" transform="translate(387,215)"/>
<path d="M0 0 C0.66 0 1.32 0 2 0 C3.2013427 4.10024455 4.38368348 8.20572777 5.5625 12.3125 C5.90474609 13.47974609 6.24699219 14.64699219 6.59960938 15.84960938 C6.91865234 16.96787109 7.23769531 18.08613281 7.56640625 19.23828125 C7.86490479 20.26993408 8.16340332 21.30158691 8.47094727 22.36450195 C9 25 9 25 8 28 C1.67178466 21.67178466 0.93197139 8.54307111 0 0 Z " fill="#3E8BA2" transform="translate(185,196)"/>
<path d="M0 0 C0.33 0.99 0.66 1.98 1 3 C1.99 3 2.98 3 4 3 C4 5.64 4 8.28 4 11 C4.66 11 5.32 11 6 11 C7.16063604 15.25566547 6.76173392 18.6835078 6 23 C3.54129016 19.31193524 2.54948117 15.72194714 1.3125 11.5 C1.07466797 10.72785156 0.83683594 9.95570313 0.59179688 9.16015625 C0.37201172 8.41636719 0.15222656 7.67257813 -0.07421875 6.90625 C-0.27619873 6.22884766 -0.47817871 5.55144531 -0.6862793 4.85351562 C-1 3 -1 3 0 0 Z " fill="#377FAE" transform="translate(160,205)"/>
<path d="M0 0 C-0.33 1.32 -0.66 2.64 -1 4 C-1.66 4 -2.32 4 -3 4 C-3 3.34 -3 2.68 -3 2 C-3.66 2 -4.32 2 -5 2 C-5.33 3.32 -5.66 4.64 -6 6 C-6.66 4.68 -7.32 3.36 -8 2 C-17.405 2.495 -17.405 2.495 -27 3 C-27 2.34 -27 1.68 -27 1 C-17.98175113 -0.06996173 -9.06335876 -0.10234659 0 0 Z " fill="#BA604D" transform="translate(392,213)"/>
<path d="M0 0 C0.99 0 1.98 0 3 0 C3.56993514 8.26405949 1.48605403 15.1977858 -1 23 C-2 21 -3 19 -4 17 C-3.67 16.34 -3.34 15.68 -3 15 C-2.34 15 -1.68 15 -1 15 C-0.84850702 11.37114676 -0.84850702 11.37114676 -2 8 C-1.34 8 -0.68 8 0 8 C0 5.36 0 2.72 0 0 Z " fill="#C2984D" transform="translate(287,161)"/>
<path d="M0 0 C1.65 0 3.3 0 5 0 C4.34 3.3 3.68 6.6 3 10 C4.65 9.67 6.3 9.34 8 9 C7.67 10.32 7.34 11.64 7 13 C4.69 13 2.38 13 0 13 C0 8.71 0 4.42 0 0 Z " fill="#F8FCFD" transform="translate(326,344)"/>
<path d="M0 0 C0.66 0 1.32 0 2 0 C2.19335938 0.84304687 2.38671875 1.68609375 2.5859375 2.5546875 C2.84632813 3.65039062 3.10671875 4.74609375 3.375 5.875 C3.63023437 6.96554688 3.88546875 8.05609375 4.1484375 9.1796875 C4.78906215 12.10408455 4.78906215 12.10408455 7 14 C7.125 17.625 7.125 17.625 7 21 C7.66 21 8.32 21 9 21 C8.67 22.98 8.34 24.96 8 27 C5.72319485 22.6648648 4.34316995 18.15740038 2.875 13.5 C2.59785156 12.64535156 2.32070312 11.79070312 2.03515625 10.91015625 C1.64263672 9.67072266 1.64263672 9.67072266 1.2421875 8.40625 C1.0035498 7.65666016 0.76491211 6.90707031 0.51904297 6.13476562 C0 4 0 4 0 0 Z " fill="#377DA0" transform="translate(166,228)"/>
<path d="M0 0 C1.00023193 0.00523682 2.00046387 0.01047363 3.03100586 0.01586914 C4.1105957 0.0190918 5.19018555 0.02231445 6.30249023 0.02563477 C8.00695312 0.03820312 8.00695312 0.03820312 9.74584961 0.05102539 C11.45611328 0.05779297 11.45611328 0.05779297 13.20092773 0.06469727 C16.02845312 0.07652792 18.85587601 0.09301129 21.68334961 0.11352539 C21.68334961 1.43352539 21.68334961 2.75352539 21.68334961 4.11352539 C21.02334961 4.11352539 20.36334961 4.11352539 19.68334961 4.11352539 C19.35334961 3.45352539 19.02334961 2.79352539 18.68334961 2.11352539 C16.95427221 2.08627198 15.22506784 2.06701552 13.49584961 2.05102539 C12.53291992 2.03942383 11.56999023 2.02782227 10.57788086 2.01586914 C7.82758448 2.10865917 5.3585537 2.49240854 2.68334961 3.11352539 C2.68334961 2.45352539 2.68334961 1.79352539 2.68334961 1.11352539 C0.37334961 2.76352539 -1.93665039 4.41352539 -4.31665039 6.11352539 C-3.24791838 0.15916135 -3.24791838 0.15916135 0 0 Z " fill="#4ACAAF" transform="translate(236.316650390625,259.886474609375)"/>
<path d="M0 0 C0.66 0 1.32 0 2 0 C2 0.66 2 1.32 2 2 C2.99 2 3.98 2 5 2 C4.67 3.32 4.34 4.64 4 6 C4.66 6 5.32 6 6 6 C7.07421875 11.95703125 7.07421875 11.95703125 7 14 C5.51953125 15.76171875 5.51953125 15.76171875 4 17 C3.32635339 14.91891315 2.66133202 12.8350329 2 10.75 C1.62875 9.58984375 1.2575 8.4296875 0.875 7.234375 C0 4 0 4 0 0 Z " fill="#3E7FC1" transform="translate(145,159)"/>
<path d="M0 0 C1.79898964 2.69848446 2.59509623 4.51970543 3.5078125 7.5625 C3.77207031 8.44164062 4.03632813 9.32078125 4.30859375 10.2265625 C4.57800781 11.14179688 4.84742188 12.05703125 5.125 13 C5.54072266 14.37285156 5.54072266 14.37285156 5.96484375 15.7734375 C8 22.61076047 8 22.61076047 8 26 C7.34 26 6.68 26 6 26 C3.74766668 21.12309901 2.32757119 16.62416881 1.3125 11.3125 C1.06113281 10.02988281 0.80976563 8.74726563 0.55078125 7.42578125 C0 4 0 4 0 0 Z " fill="#AB7444" transform="translate(326,146)"/>
<path d="M0 0 C1.1875 1.5625 1.1875 1.5625 2 4 C0.625 7.75 0.625 7.75 -1 11 C-0.01 11.33 0.98 11.66 2 12 C1.01 12.495 1.01 12.495 0 13 C-0.82804069 15.48412207 -1 17.35220307 -1 20 C-2.98 20.99 -2.98 20.99 -5 22 C-5 20.68 -5 19.36 -5 18 C-4.34 18 -3.68 18 -3 18 C-2.95101562 17.11957031 -2.90203125 16.23914063 -2.8515625 15.33203125 C-2.77679688 14.17058594 -2.70203125 13.00914062 -2.625 11.8125 C-2.55539063 10.66394531 -2.48578125 9.51539063 -2.4140625 8.33203125 C-2.02490426 5.20040883 -1.3190149 2.84714191 0 0 Z " fill="#FAD14A" transform="translate(254,190)"/>
<path d="M0 0 C3.01427717 2.49078926 3.74540741 4.81905272 4.6875 8.5625 C5.06455078 10.01849609 5.06455078 10.01849609 5.44921875 11.50390625 C6 14 6 14 6 16 C5.34 16 4.68 16 4 16 C4 15.01 4 14.02 4 13 C3.34 13 2.68 13 2 13 C2 11.68 2 10.36 2 9 C0.68 8.67 -0.64 8.34 -2 8 C-1.125 1.125 -1.125 1.125 0 0 Z " fill="#C19A4D" transform="translate(275,119)"/>
<path d="M0 0 C3.15383595 3.15383595 3.59187672 7.19547142 4.6875 11.4375 C4.92533203 12.30955078 5.16316406 13.18160156 5.40820312 14.08007812 C5.62798828 14.91861328 5.84777344 15.75714844 6.07421875 16.62109375 C6.27619873 17.3886499 6.47817871 18.15620605 6.6862793 18.94702148 C7 21 7 21 6 24 C4.11202672 22.40403325 3.10457057 21.46917948 2.55859375 19.01953125 C2.51863281 18.29121094 2.47867188 17.56289062 2.4375 16.8125 C2.19031629 13.65060839 1.76352965 10.75069328 0.9375 7.6875 C0 4 0 4 0 0 Z " fill="#3F89B7" transform="translate(166,129)"/>
<path d="M0 0 C0.33 0 0.66 0 1 0 C1 2.97 1 5.94 1 9 C0.34 9 -0.32 9 -1 9 C-1.12375 9.639375 -1.2475 10.27875 -1.375 10.9375 C-2.1979822 14.97011276 -3.09885975 18.98423907 -4 23 C-4.66 23 -5.32 23 -6 23 C-6.33 24.65 -6.66 26.3 -7 28 C-8.24493129 24.26520613 -7.56794499 22.93669482 -6.34765625 19.23828125 C-5.80141602 17.56088867 -5.80141602 17.56088867 -5.24414062 15.84960938 C-4.85419922 14.68236328 -4.46425781 13.51511719 -4.0625 12.3125 C-3.67642578 11.13365234 -3.29035156 9.95480469 -2.89257812 8.74023438 C-1.93628169 5.82412056 -0.97180117 2.91097616 0 0 Z " fill="#A29046" transform="translate(260,167)"/>
<path d="M0 0 C0.99 0 1.98 0 3 0 C2.72740991 6.77386385 1.80946641 11.34724339 -2 17 C-2.66 16.67 -3.32 16.34 -4 16 C-3.54388609 11.25641533 -2.85842673 8.72838269 0 5 C0.25124826 2.33238236 0.25124826 2.33238236 0 0 Z " fill="#3CB99B" transform="translate(256,266)"/>
<path d="M0 0 C1.96247264 3.92494528 3.32559896 7.82982923 4.625 12 C4.85445312 12.7115625 5.08390625 13.423125 5.3203125 14.15625 C6.40851115 17.6281219 7 20.32748565 7 24 C6.01 24.33 5.02 24.66 4 25 C3.90912109 23.93458984 3.90912109 23.93458984 3.81640625 22.84765625 C3.73261719 21.92855469 3.64882812 21.00945312 3.5625 20.0625 C3.48128906 19.14597656 3.40007812 18.22945312 3.31640625 17.28515625 C3.23955024 15.03840268 3.23955024 15.03840268 2 14 C1.95936168 12.33382885 1.957279 10.66611905 2 9 C1.34 9 0.68 9 0 9 C0 6.03 0 3.06 0 0 Z " fill="#337291" transform="translate(173,152)"/>
<path d="M0 0 C0.33 0.99 0.66 1.98 1 3 C1.66 3 2.32 3 3 3 C3.99 7.62 4.98 12.24 6 17 C5.01 17.33 4.02 17.66 3 18 C0.57188075 12.17251381 0.38272093 6.2242509 0 0 Z " fill="#CA894B" transform="translate(321,133)"/>
<path d="M0 0 C0.66 0 1.32 0 2 0 C2.13277344 0.62648438 2.26554687 1.25296875 2.40234375 1.8984375 C2.57894531 2.71570313 2.75554687 3.53296875 2.9375 4.375 C3.19853516 5.59316406 3.19853516 5.59316406 3.46484375 6.8359375 C3.92330693 9.029463 3.92330693 9.029463 5 11 C5.06950541 12.54023996 5.08452357 14.08334988 5.0625 15.625 C5.05347656 16.44226563 5.04445313 17.25953125 5.03515625 18.1015625 C5.02355469 18.72804688 5.01195312 19.35453125 5 20 C2.30621211 17.30621211 1.86327163 14.77425019 0.8125 11.125 C0.44769531 9.89007813 0.08289063 8.65515625 -0.29296875 7.3828125 C-0.93501035 4.31094495 -1.12677877 2.85642008 0 0 Z " fill="#AA7045" transform="translate(338,279)"/>
<path d="M0 0 C0.4125 0.45375 0.825 0.9075 1.25 1.375 C3.07773397 3.07218154 4.7384813 3.97866897 7 5 C7.66 5.33 8.32 5.66 9 6 C9.33 4.68 9.66 3.36 10 2 C10.33 3.65 10.66 5.3 11 7 C6.38 7 1.76 7 -3 7 C-3 5.35 -3 3.7 -3 2 C-2.01 1.34 -1.02 0.68 0 0 Z " fill="#BCC6C9" transform="translate(187,350)"/>
<path d="M0 0 C0.33 0 0.66 0 1 0 C1 2.31 1 4.62 1 7 C-4.73842251 7.20413361 -9.60539047 7.27141454 -15 5 C-14.34 4.34 -13.68 3.68 -13 3 C-11.68 3 -10.36 3 -9 3 C-9 3.66 -9 4.32 -9 5 C-3.59212615 3.90213575 -3.59212615 3.90213575 0 0 Z " fill="#46BDA8" transform="translate(246,302)"/>
<path d="M0 0 C2.97 0.495 2.97 0.495 6 1 C6 3.31 6 5.62 6 8 C4.02 8 2.04 8 0 8 C0 5.36 0 2.72 0 0 Z " fill="#929DA5" transform="translate(248,364)"/>
<path d="M0 0 C1.41948958 4.72799221 1.16472938 9.22538089 0 14 C-1.48325552 16.20774996 -2.86145423 17.35496479 -5 19 C-4.39297368 12.3227105 -2.22368606 6.29872004 0 0 Z " fill="#B3A449" transform="translate(245,216)"/>
<path d="M0 0 C1.66666667 0 3.33333333 0 5 0 C5 2.64 5 5.28 5 8 C3.02 8 1.04 8 -1 8 C-1.04241723 5.66705225 -1.04092937 3.33297433 -1 1 C-0.67 0.67 -0.34 0.34 0 0 Z " fill="#AAB3B7" transform="translate(204,364)"/>
<path d="M0 0 C2.33698908 3.50548362 3.45185838 7.0809881 4.6875 11.0625 C5.04424805 12.16174805 5.04424805 12.16174805 5.40820312 13.28320312 C7.12194293 18.75611413 7.12194293 18.75611413 6 21 C2.6853104 14.93993771 -0.36812312 8.98073502 -1 2 C-0.67 1.34 -0.34 0.68 0 0 Z " fill="#B47444" transform="translate(335,176)"/>
<path d="M0 0 C3.44521799 6.29693204 4.58049227 13.88896966 4 21 C3.34 21.99 2.68 22.98 2 24 C1 22 1 22 1.5625 19.875 C2.05715244 16.62442679 1.36914703 14.32840968 0.48046875 11.203125 C-0.32992099 7.48719155 -0.15758637 3.7820729 0 0 Z " fill="#AF5C43" transform="translate(367,280)"/>
<path d="M0 0 C0.66 0.33 1.32 0.66 2 1 C1.55065113 3.12691797 1.09023527 5.25150039 0.625 7.375 C0.36976563 8.55835938 0.11453125 9.74171875 -0.1484375 10.9609375 C-1 14 -1 14 -3 16 C-3.64767793 18.57061311 -3.64767793 18.57061311 -4 21 C-4.66 21 -5.32 21 -6 21 C-1.9375 1.9375 -1.9375 1.9375 0 0 Z " fill="#3C9E95" transform="translate(232,260)"/>
<path d="M0 0 C2.37925189 1.18962594 4.10984304 2.70042026 6.125 4.4375 C6.84945312 5.05496094 7.57390625 5.67242187 8.3203125 6.30859375 C10 8 10 8 10 10 C10.66 10 11.32 10 12 10 C11.67 10.66 11.34 11.32 11 12 C7.04 9.36 3.08 6.72 -1 4 C-0.67 2.68 -0.34 1.36 0 0 Z " fill="#3869B0" transform="translate(127,130)"/>
<path d="M0 0 C0.33 0.99 0.66 1.98 1 3 C3.01508358 3.73323796 3.01508358 3.73323796 5 4 C4.814375 4.721875 4.62875 5.44375 4.4375 6.1875 C3.98004693 9.12826973 4.26483643 11.14103058 5 14 C4.01 14 3.02 14 2 14 C0.02905192 9.07262981 -0.1799928 5.21979128 0 0 Z " fill="#CB9C4D" transform="translate(291,124)"/>
<path d="M0 0 C1.67542976 0.28604898 3.34385343 0.61781233 5 1 C4.67 1.99 4.34 2.98 4 4 C4.38932856 6.14255793 4.38932856 6.14255793 5 8 C3.02 8 1.04 8 -1 8 C-1.04241723 5.66705225 -1.04092937 3.33297433 -1 1 C-0.67 0.67 -0.34 0.34 0 0 Z " fill="#626976" transform="translate(234,364)"/>
<path d="M0 0 C0.66 0 1.32 0 2 0 C2 1.65 2 3.3 2 5 C2.66 5 3.32 5 4 5 C4.12375 5.804375 4.2475 6.60875 4.375 7.4375 C4.684375 8.7059375 4.684375 8.7059375 5 10 C5.66 10.33 6.32 10.66 7 11 C6.67 13.31 6.34 15.62 6 18 C4 17 4 17 2.9296875 13.9453125 C2.58164062 12.68460938 2.23359375 11.42390625 1.875 10.125 C1.52179688 8.86945313 1.16859375 7.61390625 0.8046875 6.3203125 C0 3 0 3 0 0 Z " fill="#AE874D" transform="translate(301,161)"/>
<path d="M0 0 C1.9451 2.91765 2.45276317 4.62537285 3 8 C4.98 8 6.96 8 9 8 C7.25 10 7.25 10 5 12 C3.68 12 2.36 12 1 12 C-0.47075246 7.58774263 -1.36884358 4.51718381 0 0 Z " fill="#47ABB0" transform="translate(209,276)"/>
<path d="M0 0 C1.32 0 2.64 0 4 0 C4 2.64 4 5.28 4 8 C2.35 8 0.7 8 -1 8 C-1 4.88742431 -0.82638376 2.89234315 0 0 Z " fill="#959FA5" transform="translate(276,364)"/>
<path d="M0 0 C0.55719727 0.32597168 1.11439453 0.65194336 1.68847656 0.98779297 C4.3256978 2.14262179 6.117054 2.23027983 8.984375 2.1953125 C9.91894531 2.18886719 10.85351562 2.18242187 11.81640625 2.17578125 C12.78449219 2.15902344 13.75257813 2.14226562 14.75 2.125 C15.73355469 2.11597656 16.71710938 2.10695312 17.73046875 2.09765625 C20.15389407 2.07412785 22.57682222 2.04125368 25 2 C24.67 2.66 24.34 3.32 24 4 C15.75 4 7.5 4 -1 4 C-0.67 2.68 -0.34 1.36 0 0 Z " fill="#F8D14A" transform="translate(243,232)"/>
<path d="M0 0 C0.99 0.33 1.98 0.66 3 1 C2.79375 1.886875 2.5875 2.77375 2.375 3.6875 C1.97449761 7.2252711 2.43316484 8.86632967 4 12 C2.35 12 0.7 12 -1 12 C-1.02712066 10.56260487 -1.04645067 9.12506137 -1.0625 7.6875 C-1.07410156 6.88699219 -1.08570313 6.08648437 -1.09765625 5.26171875 C-1 3 -1 3 0 0 Z " fill="#F4BD47" transform="translate(273,204)"/>
<path d="M0 0 C0.66 0 1.32 0 2 0 C2.33 2.31 2.66 4.62 3 7 C0 8 0 8 -3 7 C-2.25 2.25 -2.25 2.25 0 0 Z " fill="#AFBBC1" transform="translate(293,364)"/>
<path d="M0 0 C1.65 0 3.3 0 5 0 C4.67 2.64 4.34 5.28 4 8 C3.01 8 2.02 8 1 8 C1 6.35 1 4.7 1 3 C0.34 3 -0.32 3 -1 3 C-0.67 2.01 -0.34 1.02 0 0 Z " fill="#8E979C" transform="translate(219,364)"/>
<path d="M0 0 C0 1.65 0 3.3 0 5 C-0.33 3.68 -0.66 2.36 -1 1 C-1.99 1 -2.98 1 -4 1 C-4.33 2.32 -4.66 3.64 -5 5 C-6.32 4.67 -7.64 4.34 -9 4 C-8.6875 2.0625 -8.6875 2.0625 -8 0 C-4.71023192 -1.09658936 -3.28696233 -0.79953138 0 0 Z " fill="#B3B8B7" transform="translate(246,349)"/>
<path d="M0 0 C1.32 0.33 2.64 0.66 4 1 C4 2.98 4 4.96 4 7 C1.36 6.67 -1.28 6.34 -4 6 C-3.34 5.67 -2.68 5.34 -2 5 C-2 4.34 -2 3.68 -2 3 C-1.34 3 -0.68 3 0 3 C0 2.01 0 1.02 0 0 Z " fill="#F8F9FB" transform="translate(192,349)"/>
<path d="M0 0 C1.32 0 2.64 0 4 0 C4 3.96 4 7.92 4 12 C2.68 11.67 1.36 11.34 0 11 C0.99 11 1.98 11 3 11 C2.67 9.02 2.34 7.04 2 5 C1.34 5 0.68 5 0 5 C0 3.35 0 1.7 0 0 Z " fill="#F3F8FA" transform="translate(217,345)"/>
<path d="M0 0 C0.66 0 1.32 0 2 0 C1.49357808 4.35522853 0.61588503 7.44239635 -2 11 C-2.66 11 -3.32 11 -4 11 C-3.67 8.69 -3.34 6.38 -3 4 C-2.01 3.67 -1.02 3.34 0 3 C0 2.01 0 1.02 0 0 Z " fill="#DBB84D" transform="translate(265,156)"/>
<path d="M0 0 C0.99 0 1.98 0 3 0 C3.125 2.375 3.125 2.375 3 5 C1 7 1 7 -1.625 7.125 C-2.40875 7.08375 -3.1925 7.0425 -4 7 C-4 6.01 -4 5.02 -4 4 C-3.01 3.67 -2.02 3.34 -1 3 C-0.67 2.01 -0.34 1.02 0 0 Z " fill="#E7ECED" transform="translate(242,350)"/>
<path d="M0 0 C0.99 0.33 1.98 0.66 3 1 C3.5625 2.8125 3.5625 2.8125 4 5 C4.556875 5.9590625 4.556875 5.9590625 5.125 6.9375 C6.26573129 9.62636662 5.76706041 11.23858252 5 14 C4.71125 13.38125 4.4225 12.7625 4.125 12.125 C3.06279958 9.86674235 3.06279958 9.86674235 1 8 C0.43479997 5.34462628 0.26211802 2.70855287 0 0 Z " fill="#3E98CC" transform="translate(169,232)"/>
<path d="M0 0 C1.5994614 3.19892281 2.42595236 5.35462576 3.125 8.75 C3.29257813 9.54921875 3.46015625 10.3484375 3.6328125 11.171875 C3.81457031 12.07679688 3.81457031 12.07679688 4 13 C3.01 13.495 3.01 13.495 2 14 C1.34 12.35 0.68 10.7 0 9 C-0.33 9 -0.66 9 -1 9 C-0.67 6.03 -0.34 3.06 0 0 Z " fill="#3A84A3" transform="translate(180,176)"/>
<path d="M0 0 C0.99 0.33 1.98 0.66 3 1 C2.67 3.31 2.34 5.62 2 8 C1.34 8 0.68 8 0 8 C-0.33 9.98 -0.66 11.96 -1 14 C-1.66 13.67 -2.32 13.34 -3 13 C-2.68817931 11.58318366 -2.37551263 10.16655349 -2.0625 8.75 C-1.88847656 7.96109375 -1.71445312 7.1721875 -1.53515625 6.359375 C-1.052444 4.23121297 -0.53836822 2.11467158 0 0 Z " fill="#BC9C48" transform="translate(270,133)"/>
<path d="M0 0 C-0.75 5.75 -0.75 5.75 -3 8 C-4.32 7.01 -5.64 6.02 -7 5 C-6.34 5 -5.68 5 -5 5 C-5 3.68 -5 2.36 -5 1 C-2 0 -2 0 0 0 Z " fill="#42C4B8" transform="translate(231,280)"/>
<path d="M0 0 C1.5994614 3.19892281 2.42595236 5.35462576 3.125 8.75 C3.29257813 9.54921875 3.46015625 10.3484375 3.6328125 11.171875 C3.81457031 12.07679688 3.81457031 12.07679688 4 13 C3.01 13 2.02 13 1 13 C1 12.01 1 11.02 1 10 C0.34 9.67 -0.32 9.34 -1 9 C-0.67 6.03 -0.34 3.06 0 0 Z " fill="#3E97AA" transform="translate(195,228)"/>
<path d="M0 0 C0 2.97 0 5.94 0 9 C-0.66 9 -1.32 9 -2 9 C-2 7.35 -2 5.7 -2 4 C-4.475 3.01 -4.475 3.01 -7 2 C-7 1.34 -7 0.68 -7 0 C-4.3333581 -1.33332095 -2.83319697 -0.67102033 0 0 Z " fill="#DA8E49" transform="translate(327,234)"/>
<path d="M0 0 C0.33 0.66 0.66 1.32 1 2 C1.66 2 2.32 2 3 2 C4.16063604 6.25566547 3.76173392 9.6835078 3 14 C-0.16470185 9.25294723 -0.10927475 5.68228705 0 0 Z " fill="#3C85B5" transform="translate(163,214)"/>
<path d="M0 0 C2.64 0 5.28 0 8 0 C10.42857143 7.42857143 10.42857143 7.42857143 9 11 C8.34 10.67 7.68 10.34 7 10 C6.5859375 7.93359375 6.5859375 7.93359375 6.375 5.4375 C6.30023438 4.61121094 6.22546875 3.78492187 6.1484375 2.93359375 C6.09945312 2.29550781 6.05046875 1.65742187 6 1 C4.02 1 2.04 1 0 1 C0 0.67 0 0.34 0 0 Z " fill="#3F7FAA" transform="translate(156,118)"/>
<path d="M0 0 C0.33 0 0.66 0 1 0 C0.67 3.96 0.34 7.92 0 12 C-0.66 12 -1.32 12 -2 12 C-2 13.32 -2 14.64 -2 16 C-2.66 16 -3.32 16 -4 16 C-3.39891424 10.34979382 -1.92471317 5.33835539 0 0 Z " fill="#B6A54B" transform="translate(251,196)"/>
<path d="M0 0 C0.66 0.99 1.32 1.98 2 3 C1.67 3.33 1.34 3.66 1 4 C0.95919217 5.99958364 0.95745644 8.00045254 1 10 C-0.32 10.33 -1.64 10.66 -3 11 C-3.25 5.375 -3.25 5.375 -1 2 C-0.67 1.34 -0.34 0.68 0 0 Z " fill="#F3C24C" transform="translate(270,141)"/>
<path d="M0 0 C1.65 0 3.3 0 5 0 C5 1.65 5 3.3 5 5 C3.35 5.33 1.7 5.66 0 6 C0 4.02 0 2.04 0 0 Z " fill="#CAD4D7" transform="translate(169,343)"/>
<path d="M0 0 C0.66 0 1.32 0 2 0 C2.33 4.95 2.66 9.9 3 15 C1.43939512 11.87879024 0.54834421 9.6835326 -0.1875 6.375 C-0.36667969 5.59898437 -0.54585937 4.82296875 -0.73046875 4.0234375 C-1 2 -1 2 0 0 Z " fill="#36889B" transform="translate(186,289)"/>
<path d="M0 0 C0.99 0 1.98 0 3 0 C2.01 3.96 1.02 7.92 0 12 C-0.66 12 -1.32 12 -2 12 C-3.09658936 8.71023192 -2.79953138 7.28696233 -2 4 C-1.01 3.67 -0.02 3.34 1 3 C0.67 2.01 0.34 1.02 0 0 Z " fill="#BB9D4A" transform="translate(277,201)"/>
<path d="M0 0 C1.0625 1.8125 1.0625 1.8125 2 4 C1.67 4.99 1.34 5.98 1 7 C-0.65 7.33 -2.3 7.66 -4 8 C-3.67 6.35 -3.34 4.7 -3 3 C-2.34 3 -1.68 3 -1 3 C-0.67 2.01 -0.34 1.02 0 0 Z " fill="#FAFCFB" transform="translate(284,348)"/>
<path d="M0 0 C1.98 0 3.96 0 6 0 C6.66 1.32 7.32 2.64 8 4 C5.36 3.67 2.72 3.34 0 3 C0 2.01 0 1.02 0 0 Z " fill="#DEE4E6" transform="translate(238,344)"/>
<path d="M0 0 C4.24 8.48 4.24 8.48 3.625 12.375 C3.41875 12.91125 3.2125 13.4475 3 14 C2.67 12.68 2.34 11.36 2 10 C1.34 10 0.68 10 0 10 C0 6.7 0 3.4 0 0 Z " fill="#985E3E" transform="translate(356,244)"/>
<path d="M0 0 C0.33 0 0.66 0 1 0 C1.33 2.97 1.66 5.94 2 9 C1.01 9.33 0.02 9.66 -1 10 C-1 10.99 -1 11.98 -1 13 C-1.66 13 -2.32 13 -3 13 C-2.01 8.71 -1.02 4.42 0 0 Z " fill="#B79D4B" transform="translate(266,146)"/>
<path d="M0 0 C6.93 0 13.86 0 21 0 C21 0.33 21 0.66 21 1 C20.07767578 1.09087891 20.07767578 1.09087891 19.13671875 1.18359375 C18.32847656 1.26738281 17.52023437 1.35117188 16.6875 1.4375 C15.88699219 1.51871094 15.08648437 1.59992188 14.26171875 1.68359375 C11.83912821 1.95265693 11.83912821 1.95265693 9 3 C9 2.34 9 1.68 9 1 C6.03 1 3.06 1 0 1 C0 0.67 0 0.34 0 0 Z " fill="#EAA64F" transform="translate(295,119)"/>
<path d="M0 0 C2.64 0 5.28 0 8 0 C7.67 1.65 7.34 3.3 7 5 C2.25 3.125 2.25 3.125 0 2 C0 1.34 0 0.68 0 0 Z " fill="#3C6EE0" transform="translate(112,120)"/>
<path d="M0 0 C0.99 0 1.98 0 3 0 C2.91253716 1.43861294 2.80434652 2.87597508 2.6875 4.3125 C2.62949219 5.11300781 2.57148438 5.91351563 2.51171875 6.73828125 C2 9 2 9 -1 12 C-0.67 8.04 -0.34 4.08 0 0 Z " fill="#E4C74F" transform="translate(246,212)"/>
<path d="M0 0 C2.475 0.99 2.475 0.99 5 2 C4.38722388 4.96175123 3.74627478 6.38058783 2 9 C1.34 6.03 0.68 3.06 0 0 Z " fill="#366CAD" transform="translate(142,150)"/>
<path d="M0 0 C1.32 0 2.64 0 4 0 C3.34 2.97 2.68 5.94 2 9 C-0.29013653 5.5647952 -0.17842973 4.014669 0 0 Z " fill="#37A489" transform="translate(258,260)"/>
<path d="M0 0 C0.66 0 1.32 0 2 0 C2 0.66 2 1.32 2 2 C2.99 2 3.98 2 5 2 C5 2.66 5 3.32 5 4 C4.34 4 3.68 4 3 4 C3 6.31 3 8.62 3 11 C0.87953208 7.46588679 0.46800711 4.05606165 0 0 Z " fill="#346FA5" transform="translate(145,159)"/>
<path d="M0 0 C0 1.65 0 3.3 0 5 C-1.98 5.33 -3.96 5.66 -6 6 C-3.84615385 0 -3.84615385 0 0 0 Z " fill="#E5B14D" transform="translate(287,153)"/>
<path d="M0 0 C2.475 0.495 2.475 0.495 5 1 C5.66 3.97 6.32 6.94 7 10 C6.34 9.67 5.68 9.34 5 9 C5 8.01 5 7.02 5 6 C4.01 5.67 3.02 5.34 2 5 C2 3.68 2 2.36 2 1 C1.34 0.67 0.68 0.34 0 0 Z " fill="#9A6F42" transform="translate(314,118)"/>
<path d="M0 0 C0.99 0 1.98 0 3 0 C2.67 2.97 2.34 5.94 2 9 C1.34 8.67 0.68 8.34 0 8 C0 5.36 0 2.72 0 0 Z " fill="#F7FBFC" transform="translate(265,344)"/>
<path d="M0 0 C0.66 0.33 1.32 0.66 2 1 C1.125 8.75 1.125 8.75 0 11 C-0.66 11 -1.32 11 -2 11 C-2 9.35 -2 7.7 -2 6 C-1.34 6 -0.68 6 0 6 C0 4.02 0 2.04 0 0 Z " fill="#DE8142" transform="translate(342,275)"/>
<path d="M0 0 C1.74959319 2.62438979 2.62068453 3.96547627 3 7 C2.01 8.485 2.01 8.485 1 10 C-1 8 -1 8 -1.1875 4.4375 C-1 1 -1 1 0 0 Z " fill="#EDB751" transform="translate(281,180)"/>
<path d="M0 0 C0.33 0 0.66 0 1 0 C1.05410687 1.77049689 1.09284119 3.54146849 1.125 5.3125 C1.14820313 6.29863281 1.17140625 7.28476562 1.1953125 8.30078125 C1 11 1 11 -1 14 C-1.66 13.67 -2.32 13.34 -3 13 C-2.690625 12.154375 -2.38125 11.30875 -2.0625 10.4375 C-0.98461179 6.9502146 -0.43418696 3.61822465 0 0 Z " fill="#808A8D" transform="translate(268,343)"/>
<path d="M0 0 C2.40034102 3.60051153 4.32187705 6.96144535 3.625 11.375 C3.41875 11.91125 3.2125 12.4475 3 13 C0.78145293 8.37802694 -0.38281159 5.23175837 0 0 Z " fill="#936142" transform="translate(342,199)"/>
<path d="M0 0 C0.33 0 0.66 0 1 0 C1.25 6.625 1.25 6.625 -1 10 C-1.66 9.67 -2.32 9.34 -3 9 C-2.25 2.25 -2.25 2.25 0 0 Z " fill="#47D7AE" transform="translate(255,273)"/>
<path d="M0 0 C0.66 0 1.32 0 2 0 C2.625 1.8125 2.625 1.8125 3 4 C2.01 5.485 2.01 5.485 1 7 C0.01 7 -0.98 7 -2 7 C-2.33 6.01 -2.66 5.02 -3 4 C-2.01 4 -1.02 4 0 4 C0 2.68 0 1.36 0 0 Z " fill="#AD503F" transform="translate(387,215)"/>
<path d="M0 0 C0.99 0.33 1.98 0.66 3 1 C3 2.65 3 4.3 3 6 C1.68 6.33 0.36 6.66 -1 7 C-1.04254356 5.00045254 -1.04080783 2.99958364 -1 1 C-0.67 0.67 -0.34 0.34 0 0 Z " fill="#3A94D0" transform="translate(165,209)"/>
<path d="M0 0 C0.66 0 1.32 0 2 0 C1.34 3.3 0.68 6.6 0 10 C-1 8 -2 6 -3 4 C-2.67 3.34 -2.34 2.68 -2 2 C-1.34 2 -0.68 2 0 2 C0 1.34 0 0.68 0 0 Z " fill="#AC873C" transform="translate(286,174)"/>
<path d="M0 0 C2.73704754 2.73704754 3.16182449 5.26044774 4 9 C3.625 11.4375 3.625 11.4375 3 13 C0.89172945 9.83759418 0.66182535 8.49342531 0.375 4.8125 C0.30023438 3.91144531 0.22546875 3.01039063 0.1484375 2.08203125 C0.09945312 1.39496094 0.05046875 0.70789063 0 0 Z " fill="#3A789B" transform="translate(166,129)"/>
<path d="M0 0 C1.90318884 2.85478326 2.4619099 4.41941308 3.125 7.6875 C3.29257812 8.49574219 3.46015625 9.30398437 3.6328125 10.13671875 C3.75398438 10.75160156 3.87515625 11.36648437 4 12 C3.01 11.67 2.02 11.34 1 11 C0.67 7.37 0.34 3.74 0 0 Z " fill="#97693D" transform="translate(326,146)"/>
<path d="M0 0 C0.33 0.66 0.66 1.32 1 2 C1.99 2 2.98 2 4 2 C4.33 3.32 4.66 4.64 5 6 C3.35 6 1.7 6 0 6 C0 4.02 0 2.04 0 0 Z " fill="#B4C1C6" transform="translate(234,366)"/>
<path d="M0 0 C0.99 0 1.98 0 3 0 C3.36923077 4.55384615 3.36923077 4.55384615 1.5 6.8125 C1.005 7.204375 0.51 7.59625 0 8 C0 5.36 0 2.72 0 0 Z " fill="#F8FDFE" transform="translate(257,344)"/>
<path d="M0 0 C0.33 0 0.66 0 1 0 C1.99 4.29 2.98 8.58 4 13 C1.33395417 11.66697708 1.00875212 10.81009519 0 8 C-0.16468671 5.30840157 -0.09005213 2.70156394 0 0 Z " fill="#8C5438" transform="translate(363,267)"/>
<path d="M0 0 C0.33 0 0.66 0 1 0 C1 2.64 1 5.28 1 8 C0.01 8.33 -0.98 8.66 -2 9 C-2.33 9.66 -2.66 10.32 -3 11 C-2.32829194 7.1936543 -1.27253436 3.64793184 0 0 Z " fill="#3FC7B5" transform="translate(231,269)"/>
<path d="M0 0 C0.66 0 1.32 0 2 0 C3.42944945 2.35438733 4.08661261 3.48032433 3.625 6.25 C3.41875 6.8275 3.2125 7.405 3 8 C3 7.34 3 6.68 3 6 C2.01 6 1.02 6 0 6 C0 4.02 0 2.04 0 0 Z " fill="#D67545" transform="translate(356,254)"/>
<path d="M0 0 C1.5 1.125 1.5 1.125 3 3 C3.1875 6.1875 3.1875 6.1875 3 9 C0.9375 7.3125 0.9375 7.3125 -1 5 C-0.75 2.25 -0.75 2.25 0 0 Z " fill="#D87948" transform="translate(353,241)"/>
<path d="M0 0 C2.3129482 2.3129482 2.49580975 3.47904875 3.125 6.625 C3.29257812 7.44226563 3.46015625 8.25953125 3.6328125 9.1015625 C3.81457031 10.04128906 3.81457031 10.04128906 4 11 C2 10 2 10 1.1484375 7.93359375 C0.89320313 7.10988281 0.63796875 6.28617188 0.375 5.4375 C0.11460937 4.61121094 -0.14578125 3.78492188 -0.4140625 2.93359375 C-0.60742188 2.29550781 -0.80078125 1.65742188 -1 1 C-0.67 0.67 -0.34 0.34 0 0 Z " fill="#8D5838" transform="translate(338,186)"/>
<path d="M0 0 C0.66 0.33 1.32 0.66 2 1 C2 2.98 2 4.96 2 7 C1.01 7 0.02 7 -1 7 C-1.04254356 5.00045254 -1.04080783 2.99958364 -1 1 C-0.67 0.67 -0.34 0.34 0 0 Z " fill="#B99D5A" transform="translate(275,119)"/>
<path d="M0 0 C0.66 0 1.32 0 2 0 C2.66 2.31 3.32 4.62 4 7 C3.34 7.66 2.68 8.32 2 9 C1.34 6.03 0.68 3.06 0 0 Z " fill="#397895" transform="translate(174,255)"/>
<path d="M0 0 C2.21399303 3.79541663 3.00980198 7.75629421 4 12 C1.36170741 10.68085371 1.01736771 9.76142665 0 7 C-0.0777346 4.66796188 -0.08967728 2.33160941 0 0 Z " fill="#34889A" transform="translate(201,248)"/>
<path d="M0 0 C0.66 0 1.32 0 2 0 C1.67 1.65 1.34 3.3 1 5 C0.01 5 -0.98 5 -2 5 C-2 2 -2 2 0 0 Z " fill="#E18C46" transform="translate(330,240)"/>
<path d="M0 0 C1.125 1.6875 1.125 1.6875 2 4 C1.125 6.75 1.125 6.75 0 9 C-0.66 9 -1.32 9 -2 9 C-1.51421457 5.87709365 -1.0013988 3.00419641 0 0 Z " fill="#EECF58" transform="translate(254,190)"/>
<path d="M0 0 C0.99 0.33 1.98 0.66 3 1 C2.67 3.31 2.34 5.62 2 8 C1.34 7.67 0.68 7.34 0 7 C0 4.69 0 2.38 0 0 Z " fill="#C39353" transform="translate(305,171)"/>
<path d="M0 0 C1.5 1.25 1.5 1.25 3 3 C3 4.32 3 5.64 3 7 C2.01 7.33 1.02 7.66 0 8 C0 5.36 0 2.72 0 0 Z " fill="#3B84A4" transform="translate(177,169)"/>
<path d="M0 0 C0.66 0 1.32 0 2 0 C2.33 2.31 2.66 4.62 3 7 C2.01 7 1.02 7 0 7 C0 4.69 0 2.38 0 0 Z " fill="#408FD2" transform="translate(160,119)"/>
<path d="M0 0 C2.12508244 3.18762365 2.5020163 5.26512223 3 9 C2.01 9.495 2.01 9.495 1 10 C-0.60725635 6.78548731 -0.05748185 3.56387464 0 0 Z " fill="#388799" transform="translate(191,214)"/>
<path d="M0 0 C3 2 3 2 3.51171875 4.1640625 C3.56972656 4.97617188 3.62773437 5.78828125 3.6875 6.625 C3.75324219 7.44226563 3.81898438 8.25953125 3.88671875 9.1015625 C3.92410156 9.72804687 3.96148437 10.35453125 4 11 C1.6870518 8.6870518 1.50419025 7.52095125 0.875 4.375 C0.70742188 3.55773437 0.53984375 2.74046875 0.3671875 1.8984375 C0.24601562 1.27195313 0.12484375 0.64546875 0 0 Z " fill="#96733F" transform="translate(296,146)"/>
<path d="M0 0 C0.99 0.33 1.98 0.66 3 1 C3 2.32 3 3.64 3 5 C1.35 4.67 -0.3 4.34 -2 4 C-1.34 2.68 -0.68 1.36 0 0 Z " fill="#EFB74E" transform="translate(282,147)"/>
<path d="M0 0 C0.66 0 1.32 0 2 0 C2 2.31 2 4.62 2 7 C1.34 7 0.68 7 0 7 C0 4.69 0 2.38 0 0 Z " fill="#9AAAB4" transform="translate(191,365)"/>
<path d="M0 0 C0.99 0 1.98 0 3 0 C2.67 0.99 2.34 1.98 2 3 C1.34 3 0.68 3 0 3 C0 2.01 0 1.02 0 0 Z " fill="#5E686D" transform="translate(305,365)"/>
</svg>
